<?xml version="1.0" encoding="UTF-8" standalone="no"?>
<!-- Created with Inkscape (http://www.inkscape.org/) -->

<svg
   xmlns:dc="http://purl.org/dc/elements/1.1/"
   xmlns:cc="http://creativecommons.org/ns#"
   xmlns:rdf="http://www.w3.org/1999/02/22-rdf-syntax-ns#"
   xmlns:svg="http://www.w3.org/2000/svg"
   xmlns="http://www.w3.org/2000/svg"
   xmlns:sodipodi="http://sodipodi.sourceforge.net/DTD/sodipodi-0.dtd"
   xmlns:inkscape="http://www.inkscape.org/namespaces/inkscape"
   width="40.577503mm"
   height="57.321365mm"
   viewBox="0 0 40.577503 57.321365"
   version="1.1"
   id="svg1702"
   inkscape:version="0.92.2 (5c3e80d, 2017-08-06)"
   sodipodi:docname="squad.svg">
  <defs
     id="defs1696" />
  <sodipodi:namedview
     id="base"
     pagecolor="#ffffff"
     bordercolor="#666666"
     borderopacity="1.0"
     inkscape:pageopacity="0.0"
     inkscape:pageshadow="2"
     inkscape:zoom="0.35"
     inkscape:cx="-343.04744"
     inkscape:cy="79.752434"
     inkscape:document-units="mm"
     inkscape:current-layer="layer1"
     showgrid="false"
     fit-margin-top="0"
     fit-margin-left="0"
     fit-margin-right="0"
     fit-margin-bottom="0"
     inkscape:window-width="1366"
     inkscape:window-height="715"
     inkscape:window-x="-8"
     inkscape:window-y="-8"
     inkscape:window-maximized="1" />
  <metadata
     id="metadata1699">
    <rdf:RDF>
      <cc:Work
         rdf:about="">
        <dc:format>image/svg+xml</dc:format>
        <dc:type
           rdf:resource="http://purl.org/dc/dcmitype/StillImage" />
        <dc:title></dc:title>
      </cc:Work>
    </rdf:RDF>
  </metadata>
  <g
     inkscape:label="Layer 1"
     inkscape:groupmode="layer"
     id="layer1"
     transform="translate(-76.779517,-112.61313)">
    <g
       transform="matrix(3.1824268,0,0,3.1824268,52.839258,-544.56739)"
       id="g2187"
       inkscape:export-xdpi="1410.1838"
       inkscape:export-ydpi="1410.1838">
      <g
         transform="matrix(0.40576507,0,0,0.40576507,3.0777127,206.50295)"
         id="g2091"
         style="fill:#000000">
        <g
           id="g2089"
           style="fill:#000000">
          <path
             inkscape:connector-curvature="0"
             id="circle2085"
             d="m 31.193001,4.507 a 4.507,4.507 0 0 1 -4.507,4.5069999 4.507,4.507 0 0 1 -4.507,-4.5069999 4.507,4.507 0 0 1 4.507,-4.507 4.507,4.507 0 0 1 4.507,4.507 z"
             style="fill:#000000" />
          <path
             inkscape:connector-curvature="0"
             style="fill:#000000"
             d="m 28.256,11.163 c -1.123,-0.228 -2.344,-0.218 -3.447,0.042 -7.493,0.878 -9.926,9.551 -9.239,16.164 0.298,2.859 4.805,2.889 4.504,0 -0.25,-2.41 -0.143,-6.047 1.138,-8.632 v 9.425 c 0,0.111 0.011,0.215 0.016,0.322 -0.003,0.051 -0.015,0.094 -0.015,0.146 3.817081,0 7.521882,0 11.021,0 0,-0.232 -0.031,-0.443 -0.078,-0.646 -0.007,-3.247 -0.131,-6.497 -0.093,-9.742 1.534,2.597 1.674,6.558 1.408,9.125 -0.302,2.887 4.206,2.858 4.504,0 0.703,-6.75 -1.847,-15.648 -9.719,-16.204 z"
             id="path2087"
             sodipodi:nodetypes="cccccscccccccc" />
        </g>
      </g>
      <g
         transform="matrix(0.03334837,0,0,0.03334837,5.5016497,201.34775)"
         id="g2083">
        <g
           id="g2017">
          <g
             id="g2015">
            <path
               sodipodi:nodetypes="ccccscccccccccccc"
               inkscape:connector-curvature="0"
               d="m 183.34169,487.3528 -86.282005,35.055 c -10.072,4.092 -17.246,13.183 -18.886,23.93 l -17.214,112.852 c -2.57,16.845 9.002,32.582 25.846,35.151 16.844005,2.569 32.582005,-9.002 35.151005,-25.846 l 14.572,-95.523 79.818,-32.429 h 70.854 l 79.818,32.429 14.572,95.523 c 2.57,16.846 18.307,28.415 35.151,25.846 16.844,-2.57 28.415,-18.307 25.846,-35.151 l -17.215,-112.853 c -1.64,-10.747 -8.814,-19.837 -18.886,-23.93 l -86.966,-35.334 c -29.85447,0 -130.38303,-170.08547 -136.179,0.28 z"
               id="path2013" />
          </g>
        </g>
        <g
           id="g2023">
          <g
             id="g2021" />
        </g>
        <g
           id="g2025" />
        <g
           id="g2027" />
        <g
           id="g2029" />
        <g
           id="g2031" />
        <g
           id="g2033" />
        <g
           id="g2035" />
        <g
           id="g2037" />
        <g
           id="g2039" />
        <g
           id="g2041" />
        <g
           id="g2043" />
        <g
           id="g2045" />
        <g
           id="g2047" />
        <g
           id="g2049" />
        <g
           id="g2051" />
        <g
           id="g2053" />
      </g>
    </g>
  </g>
</svg>
